<svg xmlns="http://www.w3.org/2000/svg" fill="none" viewBox="0 0 283 64">
<path fill="#000" d="M141.04 16c-11.04 0-19 7.2-19 18s8.96 18 20 18c6.64 0 12.56-2.64 16.16-7.2l-7.36-4.24c-2.24 2.56-5.2 4-8.8 4-5.28 0-8.4-2.56-9.44-6.4H159.6v-4.88h-28.4V20h27.12v4.88h-20.8c.8 3.28 3.12 5.6 6.48 5.6 3.36 0 5.84-1.92 7.36-4.48l7.28 4.16c-3.84 5.36-10.08 8.64-17.12 8.64Zm63.28-15.36c-4.56 0-8.24 1.68-11.2 4.72l6.8 4.4c2-2.24 4.08-3.52 6.48-3.52 3.12 0 4.8 1.6 4.8 4.16v.4c-1.84-.56-3.84-.88-6-.88-6.16 0-10.8 2.56-10.8 7.68 0 4.4 3.6 7.44 8.72 7.44 4.24 0 7.36-1.52 9.28-4.88l.56.4v3.6h8V20.4c0-5.2-4.96-9.76-13.44-9.76Zm-2.24 20.64c-1.2 1.6-2.96 2.4-4.88 2.4-2.08 0-3.6-1.04-3.6-3.12 0-3.44 3.36-4.96 8.48-4.96.8 0 1.52.08 2.24.24v5.44Zm-25.12-20h-8v39.36h8V31.04h10.4V25.6h-10.4V.64Zm-22.32 9.2c-5.76 0-9.28 4-9.28 9.44s3.52 9.44 9.28 9.44c5.76 0 9.28-4 9.28-9.44s-3.52-9.44-9.28-9.44Zm0 14.48c-2.48 0-4.08-1.76-4.08-5.04s1.6-5.04 4.08-5.04c2.48 0 4.08 1.76 4.08 5.04s-1.6 5.04-4.08 5.04Zm-18.48-9.2c-5.76 0-9.28 4-9.28 9.44s3.52 9.44 9.28 9.44c5.76 0 9.28-4 9.28-9.44s-3.52-9.44-9.28-9.44Zm0 14.48c-2.48 0-4.08-1.76-4.08-5.04s1.6-5.04 4.08-5.04c2.48 0 4.08 1.76 4.08 5.04s-1.6 5.04-4.08 5.04Zm-16.56-14.48h-8v39.36h8V0.64Zm94.32 0h-8v39.36h8V0.64Zm-72.32 0h-8v39.36h8V0.64Zm-18.48 0h-8v39.36h8V0.64Z"></path>
<path fill="#000" d="M0 32.28C0 14.44 14.32 0 32 0s32 14.44 32 32.28c0 17.84-14.32 32.28-32 32.28S0 50.12 0 32.28Zm56.48 0c0-13.52-10.96-24.6-24.48-24.6S7.52 18.76 7.52 32.28c0 13.52 10.96 24.6 24.48 24.6s24.48-11.08 24.48-24.6Z"></path>
</svg>
